# File created by Blade
# Date/Time:  Tue Jan 27 17:01:45 2015
#---------------------------------------------------------
:version 1.10
:name HOM
:units
  mass 1.0
  length 1.000000
  angle deg
:documentation
     Acclaim Skeleton File
:root
   axis xyz
   order TX TY TZ RX RY RZ
   position 0.000000 0.000000 0.000000
   orientation 0 0 0
:bonedata
   begin
      id 1
      name Spine_dum
      direction 0.000000 1.000000 0.000000
      length 7.539951
      axis 0.0 0.0 0.0 xyz
   end
   begin
      id 2
      name LeftUpLeg_dum
      direction 1.000000 0.000000 0.000000
      length 3.345476
      axis 0.0 0.0 0.0 xyz
   end
   begin
      id 3
      name RightUpLeg_dum
      direction -1.000000 0.000000 0.000000
      length 3.345476
      axis 0.0 0.0 0.0 xyz
   end
   begin
      id 4
      name Spine
      direction 0.000000 1.000000 0.000000
      length 0.000000
      axis 0.0 0.0 0.0 xyz
      dof rx ry rz
   end
   begin
      id 5
      name Spine_dum1
      direction 0.000000 1.000000 0.000000
      length 15.093809
      axis 0.0 0.0 0.0 xyz
   end
   begin
      id 6
      name Spine_dum2
      direction 0.000000 1.000000 0.000000
      length 9.738928
      axis 0.0 0.0 0.0 xyz
   end
   begin
      id 7
      name Spine_dum3
      direction 0.000000 1.000000 0.000000
      length 9.738928
      axis 0.0 0.0 0.0 xyz
   end
   begin
      id 8
      name Head
      direction 0.000000 1.000000 0.000000
      length 4.527550
      axis 0.0 0.0 0.0 xyz
      dof rx ry rz
   end
   begin
      id 9
      name LeftShoulder
      direction 1.000000 0.000000 0.000000
      length 7.084015
      axis 0.0 0.0 -90.0 xyz
      dof rx ry rz
   end
   begin
      id 10
      name LeftArm
      direction 1.000000 0.000000 0.000000
      length 10.259319
      axis 0.0 0.0 -90.0 xyz
      dof rx ry rz
   end
   begin
      id 11
      name LeftForeArm
      direction 1.000000 0.000000 0.000000
      length 9.896984
      axis 0.0 0.0 -90.0 xyz
      dof ry rz rx
   end
   begin
      id 12
      name LeftHand
      direction 0.000000 0.000000 0.000000
      length 0.000000
      axis 0.0 0.0 -90.0 xyz
      dof rx ry rz
   end
   begin
      id 13
      name LeftHand_dum1
      direction 0.000000 0.000000 0.000000
      length 0.000000
      axis 0.0 0.0 -90.0 xyz
   end
   begin
      id 14
      name LeftHand_dum2
      direction 1.000000 0.000000 0.000000
      length 3.937000
      axis 0.0 0.0 -90.0 xyz
   end
   begin
      id 15
      name LeftHandThumb1
      direction 0.000000 0.000000 1.000000
      length 3.937000
      axis 0.0 0.0 -90.0 xyz
      dof rx rz ry
   end
   begin
      id 16
      name RightShoulder
      direction -1.000000 0.000000 0.000000
      length 7.084015
      axis 0.0 0.0 90.0 xyz
      dof rx ry rz
   end
   begin
      id 17
      name RightArm
      direction -1.000000 0.000000 0.000000
      length 10.259319
      axis 0.0 0.0 90.0 xyz
      dof rx ry rz
   end
   begin
      id 18
      name RightForeArm
      direction -1.000000 0.000000 0.000000
      length 9.896984
      axis 0.0 0.0 90.0 xyz
      dof ry rz rx
   end
   begin
      id 19
      name RightHand
      direction 0.000000 0.000000 0.000000
      length 0.000000
      axis 0.0 0.0 90.0 xyz
      dof rx ry rz
   end
   begin
      id 20
      name RightHand_dum1
      direction 0.000000 0.000000 0.000000
      length 0.000000
      axis 0.0 0.0 90.0 xyz
   end
   begin
      id 21
      name RightHand_dum2
      direction -1.000000 0.000000 0.000000
      length 3.937000
      axis 0.0 0.0 90.0 xyz
   end
   begin
      id 22
      name RightHandThumb1
      direction 0.000000 0.000000 1.000000
      length 3.937000
      axis 0.0 0.0 90.0 xyz
      dof rx rz ry
   end
   begin
      id 23
      name LeftUpLeg
      direction 0.000000 -1.000000 0.000000
      length 19.114733
      axis 0.0 0.0 0.0 xyz
      dof rx ry rz
   end
   begin
      id 24
      name LeftLeg
      direction 0.000000 -1.000000 0.000000
      length 16.045604
      axis 0.0 0.0 0.0 xyz
      dof rx ry rz
   end
   begin
      id 25
      name LeftFoot
      direction 0.000000 -0.258819 0.965926
      length 5.543155
      axis 15.0 0.0 0.0 xyz
      dof rx ry rz
   end
   begin
      id 26
      name LeftToeBase
      direction 0.000000 0.000000 1.000000
      length 2.952750
      axis 0.0 0.0 0.0 xyz
      dof rx ry rz
   end
   begin
      id 27
      name RightUpLeg
      direction 0.000000 -1.000000 0.000000
      length 19.114733
      axis 0.0 0.0 0.0 xyz
      dof rx ry rz
   end
   begin
      id 28
      name RightLeg
      direction 0.000000 -1.000000 0.000000
      length 16.045604
      axis 0.0 0.0 0.0 xyz
      dof rx ry rz
   end
   begin
      id 29
      name RightFoot
      direction 0.000000 -0.258819 0.965926
      length 5.543155
      axis 15.0 0.0 0.0 xyz
      dof rx ry rz
   end
   begin
      id 30
      name RightToeBase
      direction 0.000000 0.000000 1.000000
      length 2.952750
      axis 0.0 0.0 0.0 xyz
      dof rx ry rz
   end
:hierarchy
   begin
      root Spine_dum LeftUpLeg_dum RightUpLeg_dum
      Spine_dum Spine
      LeftUpLeg_dum LeftUpLeg
      RightUpLeg_dum RightUpLeg
      Spine Spine_dum1 Spine_dum2 Spine_dum3
      Spine_dum1 Head
      Spine_dum2 LeftShoulder
      Spine_dum3 RightShoulder
      LeftShoulder LeftArm
      LeftArm LeftForeArm
      LeftForeArm LeftHand
      LeftHand LeftHand_dum1 LeftHand_dum2
      LeftHand_dum1 LeftHandThumb1
      RightShoulder RightArm
      RightArm RightForeArm
      RightForeArm RightHand
      RightHand RightHand_dum1 RightHand_dum2
      RightHand_dum1 RightHandThumb1
      LeftUpLeg LeftLeg
      LeftLeg LeftFoot
      LeftFoot LeftToeBase
      RightUpLeg RightLeg
      RightLeg RightFoot
      RightFoot RightToeBase
   end

# File created by Blade
# Date/Time:  Tue Jan 27 17:01:38 2015
# Frame Rate: 120.000 fps
#------------------------------------------------------
:FULLY-SPECIFIED
:DEGREES
1208
root -0.707598 36.872207 4.954810 5.111155 -6.721173 -1.405357
Spine -0.772212 4.954759 -3.919902
Head -5.257036 3.849370 4.955463
LeftShoulder -0.684822 1.144316 0.680746
LeftArm -3.213367 -4.705075 -77.609568
LeftForeArm -40.411574 -0.000000 0.142460
LeftHand -14.952836 -0.000000 -10.547581
LeftHandThumb1 -26.253704 0.000000 33.147579
RightShoulder -1.993285 -22.399569 1.076170
RightArm 25.761270 -33.569714 51.355097
RightForeArm -147.585078 -0.000000 34.471406
RightHand -1.148612 -0.000000 -2.546038
RightHandThumb1 -24.326973 -0.000000 -32.862282
LeftUpLeg -1.695184 17.002980 4.865463
LeftLeg 7.643242 -0.000000 -0.000000
LeftFoot -18.399410 5.762561 -21.496857
LeftToeBase 14.946282 -0.000000 -0.000000
RightUpLeg -5.681055 -6.341786 -1.270913
RightLeg 9.835293 -0.000000 -0.000000
RightFoot -14.009093 -1.269662 12.850248
RightToeBase 10.871181 -0.000000 -0.000000
1209
root -0.711304 36.872505 4.955128 5.084970 -6.737598 -1.420956
Spine -0.720571 5.056572 -3.945865
Head -5.234305 3.785455 4.953982
LeftShoulder -0.694264 1.162240 0.690048
LeftArm -3.228054 -4.881189 -77.585817
LeftForeArm -40.179992 0.000000 0.117495
LeftHand -14.670830 -0.000000 -10.535135
LeftHandThumb1 -26.253704 0.000000 33.147579
RightShoulder -1.978048 -22.415855 1.088806
RightArm 25.748098 -33.635605 51.287622
RightForeArm -147.571848 -0.000000 34.350712
RightHand -1.164326 -0.000000 -2.504075
RightHandThumb1 -24.326973 -0.000000 -32.862282
LeftUpLeg -1.658655 17.039678 4.895234
LeftLeg 7.636742 -0.000000 -0.000000
LeftFoot -18.393237 5.740472 -21.506207
LeftToeBase 14.933500 -0.000000 -0.000000
RightUpLeg -5.645099 -6.334093 -1.257285
RightLeg 9.816268 -0.000000 -0.000000
RightFoot -13.981742 -1.243219 12.864196
RightToeBase 10.852020 -0.000000 -0.000000
1210
root -0.714087 36.872678 4.953442 5.074727 -6.727065 -1.428914
Spine -0.692813 5.119489 -3.969930
Head -5.195240 3.728739 4.939105
LeftShoulder -0.699492 1.171477 0.693073
LeftArm -3.213591 -4.927652 -77.570551
LeftForeArm -40.340516 0.000000 0.120167
LeftHand -14.489054 0.000000 -10.363416
LeftHandThumb1 -26.253704 0.000000 33.147579
RightShoulder -1.941545 -22.435319 1.087157
RightArm 25.737697 -33.688828 51.241586
RightForeArm -147.566735 -0.000000 34.201291
RightHand -1.152815 -0.000000 -2.510874
RightHandThumb1 -24.326973 -0.000000 -32.862282
LeftUpLeg -1.642893 17.047949 4.911183
LeftLeg 7.619997 -0.000000 -0.000000
LeftFoot -18.376084 5.733736 -21.498158
LeftToeBase 14.924174 -0.000000 -0.000000
RightUpLeg -5.634111 -6.351241 -1.241146
RightLeg 9.814665 -0.000000 -0.000000
RightFoot -13.982188 -1.260575 12.826876
RightToeBase 10.850613 -0.000000 -0.000000
1211
root -0.716830 36.872858 4.951890 5.058974 -6.704244 -1.430170
Spine -0.665275 5.201223 -3.997895
Head -5.141917 3.663663 4.907832
LeftShoulder -0.656117 1.139734 0.691787
LeftArm -3.226139 -5.013144 -77.523772
LeftForeArm -40.480031 -0.000000 0.143905
LeftHand -14.338000 0.000000 -10.480609
LeftHandThumb1 -26.253704 0.000000 33.147579
RightShoulder -1.933258 -22.431290 1.085598
RightArm 25.710082 -33.735461 51.245312
RightForeArm -147.638146 -0.000000 34.014613
RightHand -1.125749 -0.000000 -2.499387
RightHandThumb1 -24.326973 -0.000000 -32.862282
LeftUpLeg -1.622206 17.080495 4.924179
LeftLeg 7.596979 -0.000000 -0.000000
LeftFoot -18.352202 5.690966 -21.475982
LeftToeBase 14.961638 -0.000000 -0.000000
RightUpLeg -5.615445 -6.359263 -1.236168
RightLeg 9.810920 -0.000000 -0.000000
RightFoot -13.982126 -1.259207 12.858886
RightToeBase 10.846396 -0.000000 -0.000000
1212
root -0.720270 36.873329 4.948630 5.056668 -6.676223 -1.433183
Spine -0.658663 5.244178 -4.022247
Head -5.059853 3.657469 4.873578
LeftShoulder -0.644205 1.089972 0.674222
LeftArm -3.204720 -5.062382 -77.467551
LeftForeArm -40.884816 -0.000000 0.180181
LeftHand -14.293094 -0.000000 -10.449838
LeftHandThumb1 -26.253704 0.000000 33.147579
RightShoulder -1.887200 -22.454788 1.074043
RightArm 25.710107 -33.756494 51.230174
RightForeArm -147.740701 -0.000000 33.831989
RightHand -1.112323 -0.000000 -2.634989
RightHandThumb1 -24.326973 -0.000000 -32.862282
LeftUpLeg -1.613270 17.101761 4.937495
LeftLeg 7.563168 -0.000000 -0.000000
LeftFoot -18.298846 5.638165 -21.474094
LeftToeBase 14.932330 -0.000000 -0.000000
RightUpLeg -5.603086 -6.350108 -1.228074
RightLeg 9.787461 -0.000000 -0.000000
RightFoot -13.986872 -1.290828 12.845279
RightToeBase 10.873028 -0.000000 -0.000000
1213
root -0.723326 36.874250 4.945873 5.052384 -6.616455 -1.431836
Spine -0.653986 5.282149 -4.047380
Head -4.990248 3.571397 4.868600
LeftShoulder -0.607395 1.008752 0.651117
LeftArm -3.172336 -5.116684 -77.384567
LeftForeArm -41.049564 -0.000000 0.172833
LeftHand -14.157923 -0.000000 -10.782003
LeftHandThumb1 -26.253704 0.000000 33.147579
RightShoulder -1.866681 -22.446298 1.075391
RightArm 25.672904 -33.790849 51.240321
RightForeArm -147.792555 -0.000000 33.652275
RightHand -1.111827 -0.000000 -2.562716
RightHandThumb1 -24.326973 -0.000000 -32.862282
LeftUpLeg -1.610189 17.102839 4.946104
LeftLeg 7.533418 -0.000000 -0.000000
LeftFoot -18.253498 5.598937 -21.442357
LeftToeBase 14.933130 -0.000000 -0.000000
RightUpLeg -5.584434 -6.368290 -1.223246
RightLeg 9.764292 -0.000000 -0.000000
RightFoot -13.973731 -1.301596 12.878846
RightToeBase 10.865636 -0.000000 -0.000000
1214
root -0.725238 36.874613 4.943513 5.048683 -6.558018 -1.426300
Spine -0.659260 5.306090 -4.073815
Head -4.888029 3.531684 4.875593
LeftShoulder -0.573690 0.912063 0.611276
LeftArm -3.134080 -5.101659 -77.302780
LeftForeArm -41.623749 -0.000000 0.227889
LeftHand -14.005416 0.000000 -11.009515
LeftHandThumb1 -26.253704 0.000000 33.147579
RightShoulder -1.837308 -22.442015 1.072081
RightArm 25.637897 -33.792031 51.263054
RightForeArm -147.909053 -0.000000 33.463882
RightHand -0.964640 -0.000000 -2.606652
RightHandThumb1 -24.326973 -0.000000 -32.862282
LeftUpLeg -1.599441 17.118350 4.949427
LeftLeg 7.483991 -0.000000 -0.000000
LeftFoot -18.200125 5.550572 -21.395599
LeftToeBase 14.945991 -0.000000 -0.000000
RightUpLeg -5.577506 -6.377283 -1.221045
RightLeg 9.765319 -0.000000 -0.000000
RightFoot -13.991328 -1.361779 12.869001
RightToeBase 10.869066 -0.000000 -0.000000
1215
root -0.727155 36.875267 4.939596 5.038692 -6.475893 -1.413004
Spine -0.649294 5.314084 -4.101717
Head -4.801417 3.512485 4.815916
LeftShoulder -0.541564 0.815102 0.562678
LeftArm -3.032285 -5.011697 -77.200942
LeftForeArm -42.074401 -0.000000 0.274442
LeftHand -13.845744 -0.000000 -11.219771
LeftHandThumb1 -26.253704 0.000000 33.147579
RightShoulder -1.816188 -22.409932 1.067435
RightArm 25.585986 -33.788954 51.315635
RightForeArm -148.017432 -0.000000 33.273536
RightHand -0.957483 -0.000000 -2.684573
RightHandThumb1 -24.326973 -0.000000 -32.862282
LeftUpLeg -1.595674 17.097259 4.946762
LeftLeg 7.448796 -0.000000 -0.000000
LeftFoot -18.141630 5.495923 -21.401325
LeftToeBase 14.923858 -0.000000 -0.000000
RightUpLeg -5.570389 -6.415078 -1.224310
RightLeg 9.777854 -0.000000 -0.000000
RightFoot -14.000400 -1.397505 12.894817
RightToeBase 10.833940 -0.000000 -0.000000
1216
root -0.727822 36.874887 4.935328 5.045807 -6.353155 -1.383284
Spine -0.669407 5.271265 -4.140002
Head -4.680421 3.515809 4.752761
LeftShoulder -0.512336 0.749148 0.516750
LeftArm -2.897624 -4.908812 -77.105340
LeftForeArm -42.494598 -0.000000 0.405163
LeftHand -13.805974 -0.000000 -11.229758
LeftHandThumb1 -26.253704 0.000000 33.147579
RightShoulder -1.796820 -22.398611 1.047263
RightArm 25.562200 -33.773880 51.370615
RightForeArm -148.184677 0.000000 33.057588
RightHand -0.929031 -0.000000 -2.760538
RightHandThumb1 -24.326973 -0.000000 -32.862282
LeftUpLeg -1.620251 17.045993 4.919702
LeftLeg 7.411452 -0.000000 -0.000000
LeftFoot -18.094195 5.442145 -21.393155
LeftToeBase 14.957688 -0.000000 -0.000000
RightUpLeg -5.558457 -6.466072 -1.244994
RightLeg 9.750400 -0.000000 -0.000000
RightFoot -14.031640 -1.432845 12.950831
RightToeBase 10.867772 -0.000000 -0.000000
1217
root -0.731058 36.875252 4.931349 5.059512 -6.243281 -1.365202
Spine -0.695158 5.228235 -4.171807
Head -4.595402 3.520055 4.724050
LeftShoulder -0.495744 0.667244 0.466834
LeftArm -2.744940 -4.795836 -76.986779
LeftForeArm -42.835672 -0.000000 0.516688
LeftHand -13.550145 -0.000000 -11.660749
LeftHandThumb1 -26.253704 0.000000 33.147579
RightShoulder -1.779241 -22.377340 1.037239
RightArm 25.518671 -33.731424 51.461949
RightForeArm -148.296866 -0.000000 32.847132
RightHand -0.901647 -0.000000 -2.827280
RightHandThumb1 -24.326973 -0.000000 -32.862282
LeftUpLeg -1.645088 17.013217 4.913535
LeftLeg 7.382774 -0.000000 -0.000000
LeftFoot -18.032793 5.346118 -21.397456
LeftToeBase 14.958507 -0.000000 -0.000000
RightUpLeg -5.561900 -6.513347 -1.248681
RightLeg 9.741691 -0.000000 -0.000000
RightFoot -14.048294 -1.489618 12.961157
RightToeBase 10.864290 -0.000000 -0.000000
